<svg id="Layer_1" data-name="Layer 1" xmlns="http://www.w3.org/2000/svg" viewBox="0 0 76.28 119.66"><defs><style>.cls-1{fill:#232323;}</style></defs><g id="Layer_2" data-name="Layer 2"><g id="Layer_1-2" data-name="Layer 1-2"><path class="cls-1" d="M19.75,63.23V27.73a8.87,8.87,0,1,1,17.71-1.06V47.52a9,9,0,0,1,12.06,4.06,8.87,8.87,0,0,1,.8,2.41,8.94,8.94,0,0,1,12,3.83h0a9,9,0,0,1,.85,2.47,23.56,23.56,0,0,1,3-.77,8.82,8.82,0,0,1,9.92,7.56v0a8.54,8.54,0,0,1,.08,1.34V82c0,5,.12,10.07,0,15.1-.14,8.68-4,15.27-11.49,19.68a20.5,20.5,0,0,1-10.5,2.83c-6.69,0-13.39.12-20.08,0a21.64,21.64,0,0,1-17.25-9,23.49,23.49,0,0,1-4-9c-1.1-4.51-2.39-9-3.64-13.45a128.26,128.26,0,0,0-5.73-16.5,35.89,35.89,0,0,0-2.35-4.83A8.87,8.87,0,0,1,16.33,57.6C17.43,59.41,18.51,61.22,19.75,63.23Zm4.84-8.53h0V81.86a2.48,2.48,0,0,1-2.27,2.67h-.2a2.43,2.43,0,0,1-2.38-2.48h0V76.84a4.86,4.86,0,0,0-.19-1.26,59.4,59.4,0,0,0-7.34-15.45,4.08,4.08,0,0,0-4.66-1.6,3.89,3.89,0,0,0-2.7,4.24A9.64,9.64,0,0,0,6,65.54a104.27,104.27,0,0,1,7.1,18.54c1.53,5.06,2.85,10.18,4.25,15.29a24.2,24.2,0,0,0,2.23,6.4c3.51,5.82,8.65,8.91,15.48,9q9.52.08,19,0a17.51,17.51,0,0,0,17.34-16.9c.13-5,0-10,0-14.92V68.41a4,4,0,0,0-8.09,0v6A2.35,2.35,0,0,1,61,76.83h0a1.85,1.85,0,0,1-.47,0,2.42,2.42,0,0,1-2-2.49V61.77a4,4,0,0,0-8.06.08v8.28a2.38,2.38,0,0,1-2.31,2.45h0a2.48,2.48,0,0,1-2.52-2.42V55.69A4.1,4.1,0,0,0,43.85,52a3.81,3.81,0,0,0-4.33,0,3.89,3.89,0,0,0-2,3.58V69.79a2.37,2.37,0,0,1-2.28,2.44H35.1a2.39,2.39,0,0,1-2.4-2.38V27.33a4,4,0,0,0-8.06.37v.21Q24.58,41.28,24.59,54.7Z" transform="translate(0.01 0)"/><path class="cls-1" d="M.63,27.75A27.51,27.51,0,0,1,7.55,9.67,27.49,27.49,0,0,1,24,.4a27.06,27.06,0,0,1,12.55.77c.57.17,1.07.58,1.64.79.76.28,1.59.38,2.31.73a27.57,27.57,0,0,1,14.9,17.1,27.39,27.39,0,0,1-1,19.2,27.22,27.22,0,0,1-3.81,6.39,2.06,2.06,0,0,1-2.87.52h0l-.13-.1A2,2,0,0,1,47,43.05h0l.18-.22a24.45,24.45,0,0,0,3.65-6.47,23.12,23.12,0,0,0,.92-13.42A23,23,0,0,0,42.44,8.76a22.86,22.86,0,0,0-19-3.87A23.1,23.1,0,0,0,7.8,16.65a23.78,23.78,0,0,0,3.06,27.11A19.75,19.75,0,0,0,16,48.08a2.22,2.22,0,0,1,1.23,2.4,2,2,0,0,1-1.53,1.68,2.37,2.37,0,0,1-2-.49,27.65,27.65,0,0,1-7.39-6.83A28.29,28.29,0,0,1,.63,27.75Z" transform="translate(0.01 0)"/><path class="cls-1" d="M28.66,9.67A18.72,18.72,0,0,1,47,24.46a18.32,18.32,0,0,1-1.59,12.32,2.28,2.28,0,0,1-2.94,1.3L42.21,38A2.24,2.24,0,0,1,41,35.05l0-.06h0c0-.08.08-.16.13-.24A14.14,14.14,0,0,0,35.36,16,13.58,13.58,0,0,0,26,14.48a14.38,14.38,0,0,0-11,10,13.09,13.09,0,0,0,.14,8c.26.78.58,1.55.91,2.31a2.35,2.35,0,0,1-.82,3,2.17,2.17,0,0,1-3-.5,2.38,2.38,0,0,1-.18-.3,20.37,20.37,0,0,1-1.65-4.41A18.55,18.55,0,0,1,17,13.82,18.35,18.35,0,0,1,28.66,9.67Z" transform="translate(0.01 0)"/></g></g></svg>