<svg id="Layer_1" data-name="Layer 1" xmlns="http://www.w3.org/2000/svg" viewBox="0 0 470.3 98.6"><defs><style>.cls-1{fill:#c9a751;stroke:#a57c41;stroke-miterlimit:10;stroke-width:3px;}.cls-2{isolation:isolate;}.cls-3{fill:#fff;}.cls-4{fill:#3d3b38;}</style></defs><path class="cls-1" d="M420.35,96.19H48.65A47.8,47.8,0,0,1,.85,48.39h0A47.8,47.8,0,0,1,48.65.59h371.7a47.8,47.8,0,0,1,47.8,47.8h0A47.74,47.74,0,0,1,420.35,96.19Z" transform="translate(0.65 0.91)"/><g class="cls-2"><path class="cls-3" d="M168.9,38.5,163.4,57H160l-3.9-14L152,57h-3.4l-5.2-18.5h3.2l3.8,15,4.1-15h3.4l3.8,14.9,3.8-14.9Z" transform="translate(0.65 0.91)"/><path class="cls-3" d="M184.7,50.8H173.5a3.91,3.91,0,0,0,1.3,2.8,4.17,4.17,0,0,0,2.9,1.1,3.73,3.73,0,0,0,3.5-2h3.3a6.45,6.45,0,0,1-2.4,3.3,6.87,6.87,0,0,1-4.3,1.3,7.9,7.9,0,0,1-3.8-.9,6.18,6.18,0,0,1-2.6-2.7,8.43,8.43,0,0,1-.9-4,8.72,8.72,0,0,1,.9-4,6.51,6.51,0,0,1,2.6-2.6,7.9,7.9,0,0,1,3.8-.9,7.51,7.51,0,0,1,3.7.9,6,6,0,0,1,2.5,2.5,7.63,7.63,0,0,1,.9,3.8A5.9,5.9,0,0,0,184.7,50.8Zm-3.1-2.5a3.42,3.42,0,0,0-1.2-2.7,4.1,4.1,0,0,0-2.9-1,3.94,3.94,0,0,0-2.7,1,4.32,4.32,0,0,0-1.3,2.7Z" transform="translate(0.65 0.91)"/><path class="cls-3" d="M192.9,42.8a6,6,0,0,1,3-.7,6.76,6.76,0,0,1,3.5.9,7,7,0,0,1,2.5,2.6,8.9,8.9,0,0,1,0,7.8,6,6,0,0,1-2.5,2.7,7.11,7.11,0,0,1-3.5,1,6,6,0,0,1-3-.7,5.1,5.1,0,0,1-2.1-1.7V57h-3V37.3h3v7.2A5.1,5.1,0,0,1,192.9,42.8ZM199,47a5.23,5.23,0,0,0-1.6-1.7,4.33,4.33,0,0,0-4.4,0,4.36,4.36,0,0,0-1.6,1.7,5.93,5.93,0,0,0,0,5.2,4.4,4.4,0,0,0,1.6,1.7,4.33,4.33,0,0,0,4.4,0,4.36,4.36,0,0,0,1.6-1.7,5.4,5.4,0,0,0,.6-2.7A4.63,4.63,0,0,0,199,47Z" transform="translate(0.65 0.91)"/><path class="cls-3" d="M208,56.6a6.2,6.2,0,0,1-2.2-1.7,4.07,4.07,0,0,1-.8-2.4h3.1a2.4,2.4,0,0,0,.9,1.6,3.17,3.17,0,0,0,2,.6,3.94,3.94,0,0,0,2-.5,1.36,1.36,0,0,0,.7-1.3,1.3,1.3,0,0,0-.8-1.2,11.33,11.33,0,0,0-2.5-.9,21.16,21.16,0,0,1-2.7-.9,4.63,4.63,0,0,1-1.8-1.3,3.57,3.57,0,0,1-.8-2.3,3.14,3.14,0,0,1,.7-2.1,4.42,4.42,0,0,1,2-1.5,7,7,0,0,1,3-.6,5.68,5.68,0,0,1,4,1.3,4.27,4.27,0,0,1,1.6,3.4h-3a2.26,2.26,0,0,0-.8-1.6,2.88,2.88,0,0,0-1.9-.6,3,3,0,0,0-1.8.5,1.43,1.43,0,0,0-.6,1.2,1.28,1.28,0,0,0,.4,1,2.07,2.07,0,0,0,1,.6c.4.2,1,.3,1.8.6a19.11,19.11,0,0,1,2.6.9,4.63,4.63,0,0,1,1.8,1.3,3.75,3.75,0,0,1,.1,4.5,3.82,3.82,0,0,1-2,1.5,6.68,6.68,0,0,1-3,.6A9.42,9.42,0,0,1,208,56.6Z" transform="translate(0.65 0.91)"/><path class="cls-3" d="M220.1,39.8a2,2,0,0,1,1.4-3.4,2,2,0,0,1,1.4.6,2,2,0,0,1-1.4,3.4A1.68,1.68,0,0,1,220.1,39.8Zm2.8,2.5V57h-3V42.3Z" transform="translate(0.65 0.91)"/><path class="cls-3" d="M230.5,44.8v8.1a1.59,1.59,0,0,0,.4,1.2,2.23,2.23,0,0,0,1.3.4h1.9V57h-2.4a4.14,4.14,0,0,1-3.1-1,4,4,0,0,1-1.1-3.1V44.8h-1.7V42.3h1.7V38.7h3.1v3.6h3.6v2.5Z" transform="translate(0.65 0.91)"/><path class="cls-3" d="M250.1,50.8H238.9a3.91,3.91,0,0,0,1.3,2.8,4.17,4.17,0,0,0,2.9,1.1,3.73,3.73,0,0,0,3.5-2h3.3a6.45,6.45,0,0,1-2.4,3.3,6.87,6.87,0,0,1-4.3,1.3,7.9,7.9,0,0,1-3.8-.9,6.18,6.18,0,0,1-2.6-2.7,8.43,8.43,0,0,1-.9-4,8.72,8.72,0,0,1,.9-4,6.51,6.51,0,0,1,2.6-2.6,7.9,7.9,0,0,1,3.8-.9,7.51,7.51,0,0,1,3.7.9,6,6,0,0,1,2.5,2.5,7.63,7.63,0,0,1,.9,3.8C250.2,49.8,250.2,50.3,250.1,50.8ZM247,48.3a3.42,3.42,0,0,0-1.2-2.7,4.1,4.1,0,0,0-2.9-1,3.94,3.94,0,0,0-2.7,1,4.32,4.32,0,0,0-1.3,2.7Z" transform="translate(0.65 0.91)"/></g><circle class="cls-3" cx="419.55" cy="48.71" r="43.5"/><path class="cls-4" d="M392.5,47.9a27.25,27.25,0,1,0,27.3-27.3,27.25,27.25,0,0,0-27.3,27.3Zm19.4-22.1c-3,4.5-5,11.7-5.2,20.2H396.5A23.11,23.11,0,0,1,411.9,25.8Zm-1.5,24h18.8c-.4,12.8-5.1,21.6-9.4,21.6s-9-8.8-9.4-21.6Zm0-3.8c.4-12.8,5.1-21.6,9.4-21.6s9,8.8,9.4,21.6Zm32.8,0H432.9c-.2-8.5-2.2-15.7-5.2-20.2A23.68,23.68,0,0,1,443.2,46ZM427.7,70c3-4.5,5-11.7,5.2-20.2h10.2A23.26,23.26,0,0,1,427.7,70ZM396.4,49.8h10.3c.2,8.5,2.2,15.7,5.2,20.2A23.37,23.37,0,0,1,396.4,49.8Z" transform="translate(0.65 0.91)"/></svg>