<svg id="Layer_1" data-name="Layer 1" xmlns="http://www.w3.org/2000/svg" viewBox="0 0 470.3 98.6"><defs><style>.cls-1{fill:#c9a751;stroke:#a57c41;stroke-miterlimit:10;stroke-width:3px;}.cls-2{isolation:isolate;}.cls-3{fill:#fff;}.cls-4{fill:#3d3b38;}</style></defs><path class="cls-1" d="M419.5,95.6H47.8A47.8,47.8,0,0,1,0,47.8H0A47.8,47.8,0,0,1,47.8,0H419.5a47.8,47.8,0,0,1,47.8,47.8h0A47.74,47.74,0,0,1,419.5,95.6Z" transform="translate(1.5 1.5)"/><g class="cls-2"><path class="cls-3" d="M132.4,38V56.5h-3V38Z" transform="translate(1.5 1.5)"/><path class="cls-3" d="M146.8,42.3a5.3,5.3,0,0,1,2.1,2.1,7.12,7.12,0,0,1,.8,3.4v8.6h-3V48.2a4,4,0,0,0-1-3,3.47,3.47,0,0,0-2.7-1,3.62,3.62,0,0,0-2.7,1,4,4,0,0,0-1,3v8.2h-3V41.9h3v1.7a4.5,4.5,0,0,1,1.9-1.4,7,7,0,0,1,2.5-.5A6.16,6.16,0,0,1,146.8,42.3Z" transform="translate(1.5 1.5)"/><path class="cls-3" d="M155.8,56.1a6.2,6.2,0,0,1-2.2-1.7,4.07,4.07,0,0,1-.8-2.4h3.1a2.4,2.4,0,0,0,.9,1.6,3.17,3.17,0,0,0,2,.6,3.94,3.94,0,0,0,2-.5,1.36,1.36,0,0,0,.7-1.3,1.3,1.3,0,0,0-.8-1.2,11.33,11.33,0,0,0-2.5-.9,21.16,21.16,0,0,1-2.7-.9,4.63,4.63,0,0,1-1.8-1.3,3.57,3.57,0,0,1-.8-2.3,3.14,3.14,0,0,1,.7-2.1,4.42,4.42,0,0,1,2-1.5,7,7,0,0,1,3-.6,5.68,5.68,0,0,1,4,1.3,4.27,4.27,0,0,1,1.6,3.4h-3a2.26,2.26,0,0,0-.8-1.6,2.88,2.88,0,0,0-1.9-.6,3,3,0,0,0-1.8.5,1.43,1.43,0,0,0-.6,1.2,1.28,1.28,0,0,0,.4,1,2.07,2.07,0,0,0,1,.6c.4.2,1,.3,1.8.6a19.11,19.11,0,0,1,2.6.9,4.63,4.63,0,0,1,1.8,1.3,3.75,3.75,0,0,1,.1,4.5,3.82,3.82,0,0,1-2,1.5,6.68,6.68,0,0,1-3,.6A10.1,10.1,0,0,1,155.8,56.1Z" transform="translate(1.5 1.5)"/><path class="cls-3" d="M171.3,44.3v8.1a1.59,1.59,0,0,0,.4,1.2,2.23,2.23,0,0,0,1.3.4h1.9v2.5h-2.4a4.14,4.14,0,0,1-3.1-1,4,4,0,0,1-1.1-3.1V44.3h-1.7V41.8h1.7V38.2h3.1v3.6H175v2.5Z" transform="translate(1.5 1.5)"/><path class="cls-3" d="M177.6,45.2a6.27,6.27,0,0,1,2.5-2.6,7,7,0,0,1,3.5-.9,5.56,5.56,0,0,1,3,.7,7.13,7.13,0,0,1,2.1,1.7V42h3.1V56.6h-3.1V54.4a5.1,5.1,0,0,1-2.1,1.7,6,6,0,0,1-3,.7,6.2,6.2,0,0,1-3.5-1,6.56,6.56,0,0,1-2.5-2.7,8.6,8.6,0,0,1-.9-3.9A7.4,7.4,0,0,1,177.6,45.2ZM188,46.5a5.23,5.23,0,0,0-1.6-1.7,4.33,4.33,0,0,0-4.4,0,3.78,3.78,0,0,0-1.6,1.7,5.54,5.54,0,0,0-.6,2.6,6,6,0,0,0,.6,2.7,4.4,4.4,0,0,0,1.6,1.7,4.33,4.33,0,0,0,4.4,0,4.36,4.36,0,0,0,1.6-1.7,5.54,5.54,0,0,0,.6-2.6A6,6,0,0,0,188,46.5Z" transform="translate(1.5 1.5)"/><path class="cls-3" d="M204.6,42.3a6,6,0,0,1,2.1,1.7V41.9h3.1V56.8a8.63,8.63,0,0,1-.8,3.6,6,6,0,0,1-2.5,2.5,7.63,7.63,0,0,1-3.8.9,8.35,8.35,0,0,1-4.9-1.4,4.89,4.89,0,0,1-2.2-3.8h3a2.69,2.69,0,0,0,1.5,1.8,5,5,0,0,0,2.7.7,4.43,4.43,0,0,0,3-1.1,4,4,0,0,0,1.1-3.2V54.4a5.1,5.1,0,0,1-2.1,1.7,6,6,0,0,1-3,.7,6.2,6.2,0,0,1-3.5-1,6,6,0,0,1-2.5-2.7,8.6,8.6,0,0,1-.9-3.9,8,8,0,0,1,.9-3.9,6.27,6.27,0,0,1,2.5-2.6,7,7,0,0,1,3.5-.9A4.67,4.67,0,0,1,204.6,42.3Zm1.4,4.2a5.23,5.23,0,0,0-1.6-1.7,4.33,4.33,0,0,0-4.4,0,3.78,3.78,0,0,0-1.6,1.7,5.54,5.54,0,0,0-.6,2.6,6,6,0,0,0,.6,2.7,4.4,4.4,0,0,0,1.6,1.7,4.33,4.33,0,0,0,4.4,0,4.36,4.36,0,0,0,1.6-1.7,5.54,5.54,0,0,0,.6-2.6A6,6,0,0,0,206,46.5Z" transform="translate(1.5 1.5)"/><path class="cls-3" d="M218.4,42.3a5.26,5.26,0,0,1,2.6-.6v3.1h-.8a3.67,3.67,0,0,0-2.7.9,4.25,4.25,0,0,0-.9,3.1v7.7h-3V41.9h3V44A5.81,5.81,0,0,1,218.4,42.3Z" transform="translate(1.5 1.5)"/><path class="cls-3" d="M223.8,45.2a6.27,6.27,0,0,1,2.5-2.6,7,7,0,0,1,3.5-.9,5.56,5.56,0,0,1,3,.7,7.13,7.13,0,0,1,2.1,1.7V42H238V56.6h-3.1V54.4a5.1,5.1,0,0,1-2.1,1.7,6,6,0,0,1-3,.7,6.2,6.2,0,0,1-3.5-1,6.56,6.56,0,0,1-2.5-2.7,8.6,8.6,0,0,1-.9-3.9A6.61,6.61,0,0,1,223.8,45.2Zm10.4,1.3a5.23,5.23,0,0,0-1.6-1.7,4.33,4.33,0,0,0-4.4,0,3.78,3.78,0,0,0-1.6,1.7,5.54,5.54,0,0,0-.6,2.6,6,6,0,0,0,.6,2.7,4.4,4.4,0,0,0,1.6,1.7,4.33,4.33,0,0,0,4.4,0,4.36,4.36,0,0,0,1.6-1.7,5.54,5.54,0,0,0,.6-2.6A6,6,0,0,0,234.2,46.5Z" transform="translate(1.5 1.5)"/><path class="cls-3" d="M262.7,42.3a6.3,6.3,0,0,1,2.2,2.1,7.12,7.12,0,0,1,.8,3.4v8.6h-3V48.2a4,4,0,0,0-1-3,3.47,3.47,0,0,0-2.7-1,3.62,3.62,0,0,0-2.7,1,4,4,0,0,0-1,3v8.2h-3V48.2a4,4,0,0,0-1-3,3.47,3.47,0,0,0-2.7-1,3.62,3.62,0,0,0-2.7,1,4,4,0,0,0-1,3v8.2h-3V41.9h3v1.7a4.5,4.5,0,0,1,1.9-1.4,6.87,6.87,0,0,1,2.4-.5,6.17,6.17,0,0,1,3.1.7,5,5,0,0,1,2.1,2.2,4.29,4.29,0,0,1,2.1-2.1,6.11,6.11,0,0,1,3-.8A6.78,6.78,0,0,1,262.7,42.3Z" transform="translate(1.5 1.5)"/></g><path class="cls-4" d="M431.1,31.5a3.1,3.1,0,0,0-3.1,3,3.05,3.05,0,1,0,6.1.1h0a3.08,3.08,0,0,0-2.9-3.1Z" transform="translate(1.5 1.5)"/><circle class="cls-3" cx="420" cy="49.9" r="43.5"/><path class="cls-4" d="M420.5,35.5a12.8,12.8,0,1,0,12.8,12.8h0A12.76,12.76,0,0,0,420.5,35.5Zm0,21a8.2,8.2,0,1,1,8.2-8.2,8.24,8.24,0,0,1-8.2,8.2Z" transform="translate(1.5 1.5)"/><path class="cls-4" d="M430.7,22.2H409.9a15.62,15.62,0,0,0-15.6,15.6V58.6a15.62,15.62,0,0,0,15.6,15.6h20.8a15.62,15.62,0,0,0,15.6-15.6V37.9A15.77,15.77,0,0,0,430.7,22.2Zm10.7,36.5a10.71,10.71,0,0,1-10.7,10.7H409.9a10.86,10.86,0,0,1-10.8-10.7V37.9a10.88,10.88,0,0,1,10.8-10.8h20.8a10.73,10.73,0,0,1,10.7,10.8Z" transform="translate(1.5 1.5)"/></svg>