<svg id="Layer_1" data-name="Layer 1" xmlns="http://www.w3.org/2000/svg" viewBox="0 0 470.3 98.6"><defs><style>.cls-1{fill:#c9a751;stroke:#a57c41;stroke-miterlimit:10;stroke-width:3px;}.cls-2{isolation:isolate;}.cls-3{fill:#fff;}.cls-4{fill:#3d3b38;}</style></defs><path class="cls-1" d="M420.35,96.19H48.65A47.8,47.8,0,0,1,.85,48.39h0A47.8,47.8,0,0,1,48.65.59h371.7a47.8,47.8,0,0,1,47.8,47.8h0A47.74,47.74,0,0,1,420.35,96.19Z" transform="translate(0.65 0.91)"/><g class="cls-2"><path class="cls-3" d="M217.6,36.9v2.5h-7.8v5.4h6.1v2.5h-6.1v8.1h-3V36.9Z" transform="translate(0.65 0.91)"/><path class="cls-3" d="M220.3,44.1a6.27,6.27,0,0,1,2.5-2.6,7,7,0,0,1,3.5-.9,5.56,5.56,0,0,1,3,.7,7.13,7.13,0,0,1,2.1,1.7V40.9h3.1V55.5h-3.1V53.3a5.1,5.1,0,0,1-2.1,1.7,6,6,0,0,1-3,.7,6.2,6.2,0,0,1-3.5-1,6.56,6.56,0,0,1-2.5-2.7,8.6,8.6,0,0,1-.9-3.9A8.16,8.16,0,0,1,220.3,44.1Zm10.4,1.3a5.23,5.23,0,0,0-1.6-1.7,4.33,4.33,0,0,0-4.4,0,3.78,3.78,0,0,0-1.6,1.7,5.54,5.54,0,0,0-.6,2.6,6,6,0,0,0,.6,2.7,4.4,4.4,0,0,0,1.6,1.7,4.33,4.33,0,0,0,4.4,0,4.36,4.36,0,0,0,1.6-1.7,5.54,5.54,0,0,0,.6-2.6A4.7,4.7,0,0,0,230.7,45.4Z" transform="translate(0.65 0.91)"/><path class="cls-3" d="M238.3,44.1a7,7,0,0,1,2.5-2.6,7.51,7.51,0,0,1,3.7-.9,7,7,0,0,1,4.4,1.3,5.7,5.7,0,0,1,2.3,3.6H248a3.71,3.71,0,0,0-1.3-1.7,4.2,4.2,0,0,0-5.2.7,5.29,5.29,0,0,0-1.1,3.7,5.82,5.82,0,0,0,1.1,3.7,3.54,3.54,0,0,0,3,1.3,3.41,3.41,0,0,0,3.5-2.3h3.3a5.88,5.88,0,0,1-2.4,3.5,7,7,0,0,1-4.4,1.3,7.51,7.51,0,0,1-3.7-.9,6,6,0,0,1-2.5-2.7,8.43,8.43,0,0,1-.9-4A8.16,8.16,0,0,1,238.3,44.1Z" transform="translate(0.65 0.91)"/><path class="cls-3" d="M267.6,49.2H256.4a3.91,3.91,0,0,0,1.3,2.8,4.17,4.17,0,0,0,2.9,1.1,3.73,3.73,0,0,0,3.5-2h3.3a6.45,6.45,0,0,1-2.4,3.3,6.87,6.87,0,0,1-4.3,1.3,7.9,7.9,0,0,1-3.8-.9,6.18,6.18,0,0,1-2.6-2.7,8.43,8.43,0,0,1-.9-4,8.72,8.72,0,0,1,.9-4,6.51,6.51,0,0,1,2.6-2.6,7.9,7.9,0,0,1,3.8-.9,7.51,7.51,0,0,1,3.7.9,6,6,0,0,1,2.5,2.5,7.63,7.63,0,0,1,.9,3.8C267.7,48.2,267.7,48.7,267.6,49.2Zm-3-2.5a3.42,3.42,0,0,0-1.2-2.7,4.1,4.1,0,0,0-2.9-1,3.94,3.94,0,0,0-2.7,1,4.32,4.32,0,0,0-1.3,2.7Z" transform="translate(0.65 0.91)"/><path class="cls-3" d="M275.8,41.2a6,6,0,0,1,3-.7,6.76,6.76,0,0,1,3.5.9,7,7,0,0,1,2.5,2.6,8.9,8.9,0,0,1,0,7.8,6,6,0,0,1-2.5,2.7,7.11,7.11,0,0,1-3.5,1,6,6,0,0,1-3-.7,5.1,5.1,0,0,1-2.1-1.7v2.1h-3V35.7h3v7.2A5.1,5.1,0,0,1,275.8,41.2Zm6.2,4.2a5.23,5.23,0,0,0-1.6-1.7,4.33,4.33,0,0,0-4.4,0,4.36,4.36,0,0,0-1.6,1.7,5.93,5.93,0,0,0,0,5.2,4.4,4.4,0,0,0,1.6,1.7,4.33,4.33,0,0,0,4.4,0,4.36,4.36,0,0,0,1.6-1.7,5.4,5.4,0,0,0,.6-2.7A4.63,4.63,0,0,0,282,45.4Z" transform="translate(0.65 0.91)"/><path class="cls-3" d="M291.3,54.6a6.18,6.18,0,0,1-2.6-2.7,8.46,8.46,0,0,1-1-4,7.67,7.67,0,0,1,1-4,7,7,0,0,1,2.7-2.7,8.47,8.47,0,0,1,7.6,0,7,7,0,0,1,2.7,2.7,8.5,8.5,0,0,1,0,8,7.75,7.75,0,0,1-2.7,2.7,8.19,8.19,0,0,1-3.8.9A6.3,6.3,0,0,1,291.3,54.6Zm5.9-2.2a4.61,4.61,0,0,0,1.7-1.7,6.37,6.37,0,0,0,0-5.4,4.36,4.36,0,0,0-1.6-1.7,4.33,4.33,0,0,0-4.4,0,3.78,3.78,0,0,0-1.6,1.7,5.4,5.4,0,0,0-.6,2.7,5.31,5.31,0,0,0,1.2,3.7,3.8,3.8,0,0,0,3,1.3A4.14,4.14,0,0,0,297.2,52.4Z" transform="translate(0.65 0.91)"/><path class="cls-3" d="M308.2,54.6a6.18,6.18,0,0,1-2.6-2.7,8.46,8.46,0,0,1-1-4,7.67,7.67,0,0,1,1-4,7,7,0,0,1,2.7-2.7,8.47,8.47,0,0,1,7.6,0,7,7,0,0,1,2.7,2.7,8.5,8.5,0,0,1,0,8,7.75,7.75,0,0,1-2.7,2.7,8.19,8.19,0,0,1-3.8.9A6.46,6.46,0,0,1,308.2,54.6Zm6-2.2a4.61,4.61,0,0,0,1.7-1.7,6.37,6.37,0,0,0,0-5.4,4.36,4.36,0,0,0-1.6-1.7,4.33,4.33,0,0,0-4.4,0,3.78,3.78,0,0,0-1.6,1.7,5.4,5.4,0,0,0-.6,2.7,5.31,5.31,0,0,0,1.2,3.7,3.8,3.8,0,0,0,3,1.3A4.38,4.38,0,0,0,314.2,52.4Z" transform="translate(0.65 0.91)"/><path class="cls-3" d="M328.4,48l6.7,7.3H331L325.6,49v6.3h-3V35.7h3V47.1l5.3-6.4h4.2Z" transform="translate(0.65 0.91)"/></g><circle class="cls-3" cx="49.75" cy="48.71" r="43.5"/><path class="cls-4" d="M57.6,50.6l1.2-8.1H51V37.2c0-2.2,1.1-4.4,4.6-4.4h3.5V25.9q-3.15-.45-6.3-.6c-6.4,0-10.6,3.9-10.6,11v6.2H35v8.1h7.2V70.3H51V50.6Z" transform="translate(0.65 0.91)"/></svg>