<?xml version="1.0" encoding="UTF-8"?>
<!DOCTYPE svg PUBLIC "-//W3C//DTD SVG 1.1//EN" "http://www.w3.org/Graphics/SVG/1.1/DTD/svg11.dtd">
<!-- Creator: CorelDRAW -->
<svg xmlns="http://www.w3.org/2000/svg" xml:space="preserve" width="165.781mm" height="179.447mm" version="1.1" style="shape-rendering:geometricPrecision; text-rendering:geometricPrecision; image-rendering:optimizeQuality; fill-rule:evenodd; clip-rule:evenodd"
viewBox="0 0 613.94 664.55"
 xmlns:xlink="http://www.w3.org/1999/xlink"
 xmlns:xodm="http://www.corel.com/coreldraw/odm/2003">
 <defs>
  <style type="text/css">
   <![CDATA[
    .fil0 {fill:#1A1A1A}
   ]]>
  </style>
 </defs>
 <g id="Layer_x0020_1">
  <metadata id="CorelCorpID_0Corel-Layer"/>
  <path class="fil0" d="M99.48 0.76c-31.04,5.39 -81.76,55.58 -93.53,79.95 -14.27,29.54 0.59,124.7 8.18,155.52 22.77,92.42 59.75,166.4 114.27,233.61 49.53,61.05 116.88,117.64 195.21,152.63 38.17,17.05 86.76,33.79 133.82,39.3 14.26,1.67 26.08,2.82 41.07,2.79 17.7,-0.04 22.64,-2 35.12,-8.59 27.05,-14.28 51.38,-37.93 70.07,-60.99 15.98,-19.72 10.75,-46.5 1.32,-67.84 -4.79,-10.84 -7.98,-19.92 -16.98,-26.41 -29.31,-21.14 -84.02,-37.2 -125.06,-49.31 -28.13,-8.3 -44.25,6.78 -60.7,20.4 -25.95,21.48 -33.69,35.53 -53.66,24.04 -35.02,-20.15 -70.89,-51.5 -97.25,-77.08 -29.08,-28.23 -52.71,-57.7 -76.27,-97.12 -5.7,-9.54 -27.32,-48.13 -27.56,-59.16 -0.28,-13.12 11.01,-20.33 17.26,-26.07 13.81,-12.68 33.86,-30.6 41.54,-46.22 5.76,-11.72 2.81,-24.56 0.61,-36.78 -4.27,-23.8 -8.53,-47.38 -15.29,-71.44 -5.55,-19.74 -12.06,-48.29 -27.59,-59.01 -16.84,-11.63 -39.72,-26.53 -64.59,-22.21z"/>
 </g>
</svg>
