<?xml version="1.0" encoding="utf-8"?>
<!-- Generator: Adobe Illustrator 25.4.1, SVG Export Plug-In . SVG Version: 6.00 Build 0)  -->
<svg version="1.1" id="Layer_1" xmlns="http://www.w3.org/2000/svg" xmlns:xlink="http://www.w3.org/1999/xlink" x="0px" y="0px"
	 viewBox="0 0 96.8 248.5" style="enable-background:new 0 0 96.8 248.5;" xml:space="preserve">
<style type="text/css">
	.st0{fill-rule:evenodd;clip-rule:evenodd;fill:#AD813B;}
</style>
<g id="Layer_2_00000183231014398997986630000010111648975610787721_">
	<g id="Layer_1-2">
		<path class="st0" d="M92.6,60.5c-36.3-25.6-35-37.8-32.9-41.8c0.5-1,1.4-1.7,2.5-2.1C77,11.9,92.6,60.5,92.6,60.5
			s4.2-44.6-24.1-59.5c0,0-7.9-3.9-17.1,3.1c0,0-11.7,7-7.1,20.2C44.3,24.4,47.4,45.7,92.6,60.5z"/>
		<path class="st0" d="M29.1,43.8c7.5,2.3,14,10.6,26.1,16.7s18.5-1.9,18.5-1.9C68.4,60.4,60.4,58.5,53,48
			c-4.2-6.1-9.4-11.3-15.5-15.6C28.6,27.8,26,34.8,26,34.8C22.4,44.1,29.1,43.8,29.1,43.8z"/>
		<path class="st0" d="M96.8,216.4c-2.5,0.3-5.1,0.5-7.6,0.5c-32.8,0-59.4-27-59.4-60.4v-29.7C29.7,110,43.2,96.3,60,96.1
			c0,0,0,0,0,0h36.8V67H61.4C27.5,67,0,94.9,0,129.3v27.1c0,50.9,40.6,92.1,90.6,92.1c2.1,0,4.1-0.1,6.2-0.2V216.4z"/>
	</g>
</g>
</svg>
