<?xml version="1.0" encoding="UTF-8"?>
<!DOCTYPE svg PUBLIC "-//W3C//DTD SVG 1.1//EN" "http://www.w3.org/Graphics/SVG/1.1/DTD/svg11.dtd">
<!-- Creator: CorelDRAW -->
<svg xmlns="http://www.w3.org/2000/svg" xml:space="preserve" width="45.5382mm" height="45.8324mm" version="1.1" style="shape-rendering:geometricPrecision; text-rendering:geometricPrecision; image-rendering:optimizeQuality; fill-rule:evenodd; clip-rule:evenodd"
viewBox="0 0 7545.66 7594.41"
 xmlns:xlink="http://www.w3.org/1999/xlink"
 xmlns:xodm="http://www.corel.com/coreldraw/odm/2003">
 <defs>
  <style type="text/css">
   <![CDATA[
    .fil0 {fill:white}
   ]]>
  </style>
 </defs>
 <g id="Layer_x0020_1">
  <metadata id="CorelCorpID_0Corel-Layer"/>
  <path class="fil0" d="M-0 7594.41c132.21,-16.06 1291.2,-405.23 1520.77,-477.71 122.39,-38.66 238.99,-77.65 367.57,-119.07 309.41,-99.7 304.51,120.45 1103.03,312.21 2147.6,515.76 4376.67,-1016.65 4544.99,-3344.55 60.55,-837.15 -177.65,-1702.88 -633.7,-2354.21 -1511.23,-2158.32 -4531.85,-2085.64 -6011.54,-155.49 -785.85,1025.08 -1045.41,2567.83 -367.22,3903.12 68.24,134.35 153.55,206.2 107.8,355.41 -178.96,583.94 -436.77,1254.71 -631.7,1880.29zm972.59 -966.04c117.41,-3.15 840.88,-255.97 1044.14,-321.08 332.97,-106.66 540.83,472.48 1855.98,472.48 1646.09,0 3045.62,-1353.98 3045.62,-3134.69 0,-2209.32 -2514.06,-3850.59 -4643.81,-2594.17 -1404.29,828.43 -1962.2,2688.29 -1125.48,4143.08 216.35,376.17 233.29,218.16 74.28,679.91 -87.49,254.1 -171.13,508.48 -250.74,754.46zm3385.41 -1984.19c-467.95,38.41 -1450.02,-1044.01 -1409.32,-1280.05 111.73,-221.94 427.85,-306.91 277.73,-681.47 -99.06,-247.17 -189.99,-601.54 -322.14,-771.45 -271.22,-34.4 -396.09,-65.58 -567.39,95.61 -1038.27,976.96 516.75,2620.64 1290.27,3109.58 214.9,135.84 743.68,355.46 1033.22,421.54 403.74,92.16 891.71,-163.03 1010.5,-401.04 280.65,-562.33 -69.44,-579.29 -471.95,-800.96 -633.8,-349.06 -408.57,25.42 -840.92,308.23z"/>
 </g>
</svg>
