<?xml version="1.0" encoding="UTF-8"?>
<!DOCTYPE svg PUBLIC "-//W3C//DTD SVG 1.1//EN" "http://www.w3.org/Graphics/SVG/1.1/DTD/svg11.dtd">
<!-- Creator: CorelDRAW -->
<svg xmlns="http://www.w3.org/2000/svg" xml:space="preserve" width="58.4121mm" height="58.4611mm" version="1.1" style="shape-rendering:geometricPrecision; text-rendering:geometricPrecision; image-rendering:optimizeQuality; fill-rule:evenodd; clip-rule:evenodd"
viewBox="0 0 512.6 513.03"
 xmlns:xlink="http://www.w3.org/1999/xlink"
 xmlns:xodm="http://www.corel.com/coreldraw/odm/2003">
 <defs>
  <style type="text/css">
   <![CDATA[
    .fil0 {fill:white}
   ]]>
  </style>
 </defs>
 <g id="Layer_x0020_1">
  <metadata id="CorelCorpID_0Corel-Layer"/>
  <path class="fil0" d="M131.35 2.73c-67.48,8.87 -118.9,59.34 -128.78,126.77 -3.59,24.52 -3.3,227.86 0.06,252.94 5.11,38.14 22.08,64.69 42.35,85.19 56.56,57.2 127.99,44.11 210.05,44.11 38.44,0 91.41,2.96 127.73,-1.93 65.97,-8.89 118.08,-60.23 127.13,-126.86 3.74,-27.5 3.52,-225.64 -0.1,-253.06 -8.71,-66.04 -60.26,-118 -126.72,-127.26 -26.27,-3.66 -225.12,-3.4 -251.72,0.09zm7.77 41.6c-114.53,17.04 -95.84,123.25 -95.84,223.63 0,59.82 -12.59,137.58 38.04,176.22 21.6,16.49 44.76,25.24 80.29,25.26 36.39,0.02 190.76,1.92 213.61,-1.13 61.59,-8.23 94.16,-55.3 94.18,-117.3 0.01,-36.59 1.84,-190.68 -1.01,-213.67 -7.54,-60.9 -55.5,-94.17 -117.35,-94.19 -34.79,-0.01 -190.89,-1.94 -211.92,1.19zm91.37 87.19c-60.63,13.41 -115.2,72.37 -98.93,150.94 12.52,60.46 73.84,114.52 151,98.67 59.98,-12.32 114.67,-74.03 98.53,-151.01 -12.53,-59.78 -73.88,-115.57 -150.6,-98.6zm5.29 43.06c-113.01,30.95 -63.3,192.91 43.18,163.85 38.32,-10.46 73.48,-53.01 59.6,-104.86 -10.18,-38.02 -52.58,-72.73 -102.78,-58.98zm150.59 -86.83c-38.61,10.43 -25.74,72.34 18.33,60.31 35.41,-9.66 24.55,-71.9 -18.33,-60.31z"/>
 </g>
</svg>
